<svg width="80" height="44" viewBox="0 0 80 44" fill="none" xmlns="http://www.w3.org/2000/svg">
<g clip-path="url(#clip0_4_245)">
<path d="M23.0442 30.243L24.694 30.5051L23.9405 35.3492C24.1434 35.1249 24.3919 34.9426 24.6879 34.7832C25.1847 34.5213 25.8968 34.2906 26.8697 34.4458C28.8487 34.7623 30.3081 36.7914 29.9334 39.2145C29.5567 41.6377 27.5528 43.1154 25.5718 42.7989C24.5989 42.6438 23.9903 42.2035 23.5969 41.799C23.3651 41.5559 23.1829 41.3043 23.0567 41.0276L22.8745 42.1973L21.2246 41.9352L23.0442 30.243ZM28.2836 38.9525C28.5196 37.4328 27.6129 36.1918 26.2943 35.9823C24.9735 35.7726 23.7356 36.6698 23.4996 38.1895C23.2636 39.7092 24.1703 40.9501 25.489 41.1597C26.8097 41.3714 28.0476 40.4722 28.2836 38.9525Z" fill="white"/>
<path d="M35.9839 35.3283C38.319 35.4331 40.0723 37.3741 39.9688 39.7386C39.8653 42.103 37.9484 43.8784 35.6113 43.7736C33.2762 43.6688 31.5229 41.7278 31.6264 39.3612C31.7299 36.9989 33.6468 35.2235 35.9839 35.3283ZM38.3003 39.6652C38.3686 38.1287 37.3316 36.9968 35.9135 36.9339C34.4956 36.871 33.3632 37.9023 33.297 39.4409C33.2287 40.9774 34.2657 42.1093 35.6838 42.1722C37.1017 42.235 38.232 41.2017 38.3003 39.6652Z" fill="white"/>
<path d="M45.5663 35.2445C47.8993 35.0998 49.8472 36.8417 49.9901 39.204C50.1329 41.5685 48.4127 43.5389 46.0797 43.6835C43.7446 43.8281 41.7988 42.0862 41.656 39.7239C41.5111 37.3615 43.2333 35.3891 45.5663 35.2445ZM48.3237 39.3088C48.2305 37.7724 47.0816 36.7599 45.6636 36.848C44.2456 36.936 43.2292 38.0847 43.3224 39.6211C43.4155 41.1576 44.5644 42.17 45.9824 42.082C47.4004 41.9919 48.4168 40.8453 48.3237 39.3088Z" fill="white"/>
<path d="M50.9653 31.2261L52.6131 30.9452L53.8324 38.2838L56.6001 34.0392L58.6577 33.6891L56.1509 37.46L60.2351 41.6523L58.341 41.9751L55.2752 38.81L54.1926 40.4512L54.5528 42.6186L52.905 42.8995L50.9653 31.2261Z" fill="white"/>
<path d="M2.48408 17.7752C2.84842 18.2783 3.31211 18.7143 3.87518 19.1168C4.83569 19.7875 6.29302 20.4583 8.2803 20.4583C11.2943 20.4583 12.9173 18.8149 12.9173 16.9368C12.9173 11.7383 0.662423 14.9245 0.662423 6.20458C0.662423 2.68307 3.67645 -0.335369 8.61147 -0.335369C10.9962 -0.335369 12.8179 0.40247 14.0434 1.17385C14.772 1.60984 15.4014 2.11291 15.8982 2.68307L13.414 5.19842C13.0497 4.79597 12.6523 4.42705 12.1886 4.12521C11.3937 3.5886 10.1682 3.01845 8.61147 3.01845C5.7962 3.01845 4.30575 4.49412 4.30575 6.20458C4.30575 11.403 16.5606 8.21683 16.5606 16.9368C16.5606 20.626 13.414 23.8121 8.2803 23.8121C5.46499 23.8121 3.37835 22.9737 2.02039 22.0682C1.22548 21.5651 0.56306 20.9614 0 20.2906L2.48408 17.7752Z" fill="white"/>
<path d="M68.3931 0H71.7052V23.4767H68.3931V0Z" fill="white"/>
<path d="M76.6733 0H79.9858V23.4767H76.6733V0Z" fill="white"/>
<path d="M56.3062 5.19632C53.4909 5.19632 51.338 3.04988 51.338 -0.00209427H48.0259C48.0259 4.69325 51.6692 8.38242 56.3062 8.38242C60.9432 8.38242 64.5865 4.69325 64.5865 -0.00209427H61.2743C61.2743 3.04988 59.1215 5.19632 56.3062 5.19632Z" fill="white"/>
<path d="M56.3062 18.2783C59.1215 18.2783 61.2743 20.4248 61.2743 23.4767H64.5865C64.5865 18.7814 60.9432 15.0922 56.3062 15.0922C51.6692 15.0922 48.0259 18.7814 48.0259 23.4767H51.338C51.338 20.4248 53.4909 18.2783 56.3062 18.2783Z" fill="white"/>
<path d="M40.7389 23.3929C40.7389 20.5421 42.7593 18.5299 45.0446 18.5299C45.4089 18.5299 45.6739 18.5969 45.9389 18.6305L46.3695 18.6975V15.176H45.5415C43.9516 15.176 42.7593 15.8133 41.9643 16.4505C41.5006 16.8194 41.1032 17.2554 40.7389 17.6914V15.5114H37.4268V23.3929H40.7389Z" fill="white"/>
<path d="M40.7389 0H37.4268V8.21683H40.7389V0Z" fill="white"/>
<path d="M22.5226 23.3929C22.5226 20.3409 24.6754 18.1945 27.4908 18.1945C28.915 18.1945 29.9417 18.7646 30.7035 19.3012C31.1341 19.6031 31.4984 19.972 31.7965 20.3744L34.115 18.1945C33.6844 17.6243 33.1213 17.0877 32.492 16.6182C31.3991 15.8133 29.743 15.0083 27.4908 15.0083C22.8538 15.0083 19.2104 18.6975 19.2104 23.3929H22.5226Z" fill="white"/>
<path d="M30.7698 4.02458C30.008 4.6618 28.915 5.19842 27.4908 5.19842C24.6754 5.19842 22.5226 3.05197 22.5226 0H19.2104C19.2104 4.69534 22.8538 8.38453 27.4908 8.38453C29.743 8.38453 31.3991 7.54608 32.5583 6.70763C33.2207 6.20456 33.7837 5.66795 34.2806 5.03072L31.9621 2.85075C31.5978 3.28674 31.2003 3.6892 30.7698 4.02458Z" fill="white"/>
</g>
<defs>
<clipPath id="clip0_4_245">
<rect width="80" height="43.7736" fill="white"/>
</clipPath>
</defs>
</svg>
